<svg xmlns="http://www.w3.org/2000/svg" viewBox="0 0 64 64" fill="none">
  <defs>
    <linearGradient id="g" x1="0%" y1="0%" x2="100%" y2="100%">
      <stop offset="0%" style="stop-color:#0ea5e9"/>
      <stop offset="100%" style="stop-color:#8b5cf6"/>
    </linearGradient>
  </defs>
  <rect width="64" height="64" rx="14" fill="url(#g)"/>
  <path fill="#fff" d="M32 14c-6 0-11 4-11 9v3h6v-3c0-2 2-4 5-4s5 2 5 4c0 2-1 3-4 4l-2 1c-4 2-6 4-6 8v2h6v-2c0-1 1-2 3-3l2-1c5-2 8-5 8-9 0-5-5-9-11-9zM28 44v6h8v-6h-8z"/>
  <ellipse cx="32" cy="41" rx="4" ry="3" fill="#fff" opacity=".35"/>
</svg>
